<svg version="1" xmlns="http://www.w3.org/2000/svg" width="1200" height="1200" viewBox="0 0 900.000000 900.000000"><path d="M402 1.6c-58.2 6.9-107.9 21.7-157.5 46.9C128.3 107.7 42.8 215.7 12 342.5c-4.5 18.4-9.3 45.8-11 62.6-.8 7.6-1 25.6-.7 53.5.4 45.4.9 50.6 8.2 85.4 14.7 71.1 46.4 136.2 94.9 195 9.5 11.5 19.6 22 21.2 22 .8 0 1.6-1 1.8-2.3.3-1.2 1.5-7.1 2.7-13.1C145 664.1 190.2 572.3 257.9 484c27.9-36.4 76.9-91.7 79.1-89.3 1.4 1.5 10 21.5 10 23.1 0 .9-4.5 7.1-10.1 13.7-49.2 58.6-97.8 143.7-127.4 223-18.6 49.9-28.8 96.3-30.2 137l-.6 17 2.6 3.1c6.5 7.7 41.3 29.6 68.2 42.9 43.9 21.6 88.6 35.1 143 43.2 17.7 2.6 98.2 2.6 116 0 41.3-6.1 77.2-15.6 111.3-29.3 61.3-24.8 119.5-65.1 162.3-112.6l7-7.7-6.5-10.5c-9.1-14.7-26.5-40.6-42.7-63.7l-13.8-19.6 2.9-8.9c4.3-13.5 5.6-26.9 4.1-42.5-2-20.7-3.7-23.7-6.6-11.7-1 4-2.9 10.4-4.2 14.3-3 8.4-12.3 28.5-13.3 28.5-.4 0-5.4-5.5-11.2-12.3-5.8-6.7-16.2-18.5-23.2-26.1-7-7.7-12.8-14.9-13.1-16-.2-1.2-1.1-9.8-2-19.1-2-21.2-4.4-33.5-9.4-49.5-3.8-12.1-10.9-31-11.7-31-.2 0-.4 13.9-.3 30.8 0 26.6-1 43.4-2.6 45-.8.8-3.2-.7-16.9-10.8-18-13.3-41-28.8-56.5-38-6.7-4.1-12.4-7.9-12.6-8.4-.1-.6-1-6.7-1.9-13.5-2.7-19.9-14.2-62-17.1-62.5-.5 0-3.1 7.8-5.6 17.4-6 23.1-11.8 41.2-12.9 40.5-.5-.3-1.6-2.9-2.5-5.8-6.9-21.1-22.6-43.3-42.5-59.9-27.2-22.9-67.2-43.1-104.8-53.2l-8.3-2.2 9.8-3.2c12-3.9 28.9-7.8 40.3-9.2 10.8-1.3 43.8-1.3 56.8 0 11.7 1.2 33.1 6.3 48.7 11.6 104 35.1 197 140.4 258.4 292.2 7.3 18.2 15.6 40.9 24 66.5 3.5 10.3 6.7 18.5 7.2 18.1 1.3-.7 14-17.6 22.5-29.9 39.1-56.1 65.7-125.2 74.8-194.5 2.7-20.5 3.6-35 3.6-61.5 0-52.4-5.6-90.4-19.7-134.8l-5.7-17.7-9.5.1c-5.3 0-11.8.6-14.6 1.3l-5 1.2-7-5.6c-30.7-24.7-59.2-40.5-102.9-57.1-18.2-7-18.3-6.1-.3 6.8 14.1 10 28.4 21.2 36.5 28.6 10.4 9.3 26.2 28.2 26.2 31.3 0 1.6-22.9 12.9-55.5 27.4-12.6 5.6-26.4 11.9-30.5 14-4.1 2.1-9.2 4.5-11.2 5.3l-3.7 1.6-4.8-7.7c-6.6-10.9-28.8-32.9-41.3-41.1-11.5-7.6-37.8-20.7-59-29.4-19.2-7.9-20-8.2-20-6.5 0 .7 3.7 5.6 8.2 10.8 29.3 34.2 44.1 59.5 48.8 83.2 1.2 6.1.8 7.8-1.7 7.8-.8 0-9.6-3.4-19.5-7.6-57.5-24.1-101.2-36.1-140.4-38.6-42.9-2.7-70.5 2.3-102.6 18.3-4.3 2.2-7.8 3.5-7.8 2.9 0-2.3 7.3-19.9 11.2-27 30.2-55.4 98.2-92.7 195.3-107 71.3-10.5 151.4-8.4 244.3 6.6 11.9 1.9 23.9 3.8 26.6 4.1l4.8.6-1.7-3.4c-2.7-5.1-14.7-23-24-35.4-33.7-45.5-77-85.2-127.1-116.6-21.6-13.5-56.1-30.1-84.5-40.7C568.7 12.8 522 2.9 487.5 1c-24.4-1.4-71.7-1.1-85.5.6zm9 231.3c-23.5 7.6-43.7 26.2-56.4 51.8-8.1 16.2-15.1 40.3-17.1 58.9-1 8.9-1.2 9-8.6 5.9-3.5-1.4-10-3.5-14.4-4.6-4.3-1.1-8.7-2.5-9.7-3-2.8-1.5-9.8-16.7-11-24.2-1.5-8.9.2-18.5 4.8-27.7 6.1-12.1 25.6-28.6 45.9-38.7 17.8-8.9 55.8-20 69-20.2 2.4 0 1.8.4-2.5 1.8zM301.5 362.4c10.2 2.2 26.5 6.9 26.5 7.5 0 .3-1.8 1.6-4 2.9-5.6 3.2-16.2 12.2-32.3 27.4-10.9 10.3-14.1 12.8-14.8 11.7-7.2-10.7-8.2-19.7-3.1-27.9 5-8.1 4.3-8.8-3.4-3.6-8.3 5.6-13.9 14-16.4 24.5l-1.3 5.3-8.1-.7c-15-1.3-33.9-6.7-39.8-11.4-2.1-1.8-2.1-2-.6-4.3 2.4-3.6 15.6-14 24.1-19 9.3-5.4 21.4-10.3 30.2-12.2 9-1.9 34.8-2 43-.2zm57.7 16.6c26.6 5.9 51.5 18.5 72 36.7 40.6 36.1 65.1 91.3 73.4 165.3 1.4 13.2 1.6 21 1 53-.7 37.1-1.5 50.5-2.8 46.5-.4-1.1-2.1-8.3-3.8-16-1.7-7.7-5.4-22.8-8.1-33.5-7-26.6-6.8-24-2.1-31.3 5-7.6 7.9-14.2 9.7-22.1 1.6-6.9 1.2-8.2-1.6-4.6-6.6 8.5-12.6 15.4-15 17.1l-2.7 1.9-1.3-3.7c-.6-2.1-3.6-10.1-6.5-17.7l-5.4-13.9 2.4-11.1c3.2-14.4 4.8-28.2 4.4-37.5l-.3-7.5-3.8 11c-2.2 6-5.7 14.7-7.8 19.3l-3.9 8.4-8.9-13.4c-4.9-7.4-12.5-17.7-16.9-23-7-8.4-7.8-9.8-7-12 3.2-8.2 6.2-37.9 4-37.9-.7 0-3.7 3.9-6.8 8.7-3.1 4.8-7.3 10.6-9.2 12.9l-3.6 4.1-8.1-6.7c-4.4-3.6-10.8-8.7-14.2-11.3-5.8-4.5-6.3-5.1-8.8-12.9-5.7-17.3-11-30.8-17.8-45.3-11.4-24.6-11.8-25.5-10.4-25.5.6 0 5.1.9 9.9 2z"/></svg>